<svg xmlns="http://www.w3.org/2000/svg" xmlns:xlink="http://www.w3.org/1999/xlink" width="256.478" height="47.22" viewBox="0 0 256.478 47.22"><g transform="translate(0 -36.502)"><g transform="translate(0 36.502)"><path d="M23.389,29.682,20.111,42.526h-.089L15.946,29.682H11.958L7.885,42.171H7.8l-3.1-12.488H0L5.755,49.262h3.9l4.251-13.556H14L18.25,49.173h3.811l5.671-19.491Z" transform="translate(0 -16.127)"/><path d="M65.954,29.682h4.253v7.265h8.327V29.682h4.253V49.173H78.534V40.755H70.207v8.418H65.954Z" transform="translate(-35.832 -16.127)"/><rect width="4.253" height="19.491" transform="translate(51.562 13.556)"/><path d="M133.806,33.491h-5.582V29.682h15.42v3.809h-5.585V49.173h-4.253V33.491" transform="translate(-69.665 -16.126)"/><path d="M168.384,29.682h13.291v3.984h-9.038V37.3h8.506v3.984h-8.506v3.984h9.481v3.992H168.384Z" transform="translate(-91.485 -16.127)"/><path d="M226.578,29.682h4.341v15.5h7.974v3.988H226.666Z" transform="translate(-123.101 -16.127)"/><path d="M263.793,29.682h3.542l8.506,19.491h-4.87l-1.685-4.164h-7.619l-1.594,4.164h-4.785Zm1.682,5.67-2.391,6.024h4.783Z" transform="translate(-138.701 -16.126)"/><path d="M305.92,29.682h7.265c3.456,0,7.177.709,7.177,4.962a4.276,4.276,0,0,1-3.367,4.253v.089a4.661,4.661,0,0,1,4.253,4.783c0,4.076-3.9,5.405-7.353,5.405H305.92Zm4.253,7.8h3.1c1.328,0,2.747-.532,2.747-2.126s-1.5-2.036-2.922-2.036h-2.923Zm0,8.15h3.9c1.328,0,2.835-.62,2.835-2.3,0-1.862-2.038-2.126-3.453-2.126h-3.28Z" transform="translate(-166.21 -16.126)"/><path d="M346.467,29.682h13.288v3.984h-8.947V37.3h8.506v3.984h-8.506v3.984h9.479v3.992H346.555Z" transform="translate(-188.24 -16.127)"/><path d="M385.848,29.682h4.341v15.5h7.973v3.988H385.936Z" transform="translate(-209.636 -16.127)"/><path d="M436.48,0V47.22h34.638V35.349h11.43V0Zm15.059,30.211h-3.277V14.529h3.277Zm19.67,0h-9.038c-4.606,0-8.061-3.012-8.061-8.061a7.974,7.974,0,1,1,15.947,0c0,2.213-.885,4.427-2.923,5.312H471.3Zm-9.126-12.847a4.681,4.681,0,0,0-4.52,4.873,4.53,4.53,0,1,0,9.035,0,4.681,4.681,0,0,0-4.518-4.873" transform="translate(-237.145)"/><path d="M543.632.8H542.39V0h3.367V.8h-1.241V4.165h-.885Z" transform="translate(-294.685)"/><path d="M551.122,0h1.416l.974,2.747L554.49,0h1.417V4.253h-.885V.974l-1.156,3.19h-.709l-.972-3.19v3.19H551.3V0Z" transform="translate(-299.43)"/><path d="M516.011,90.322l9.035-9.035h-9.035Z" transform="translate(-280.354 -44.165)"/></g></g></svg>